<?xml version="1.0" encoding="UTF-8" standalone="no"?>
<svg
   version="1.1"
   width="1138.098"
   height="777.79974"
   viewBox="0 0 1138.0981 777.79974"
   preserveAspectRatio="xMidYMid"
   id="svg18"
   xmlns:xlink="http://www.w3.org/1999/xlink"
   xmlns="http://www.w3.org/2000/svg"
   xmlns:svg="http://www.w3.org/2000/svg">
  <defs
     id="defs18" />
  <!-- Green face body -->
  <!-- Sub-path holes: eye socket, nose detail = pass-through to background -->
  <!-- Mouth gap between jaws = naturally transparent -->
  <!-- White face details (teeth grid, eye highlights, nostril) -->
  <g
     id="layer3"
     transform="translate(-454.95087,-635.10014)">
    <g
       id="g3"
       transform="translate(0.50004168,47.100142)">
      <g
         id="g2">
        <path
           id="face-body-7"
           d="m 509.3685,937.54826 v -207.8 l 39.2,-36.2 39,-36.2 59.4,-0.4 59.2,-0.6 26,-33.4 26.2,-33.4 74,0.4 73.8,0.4 28.8,38 c 15.8,21 29.8,38.6 31,39.2 1.4,0.8 22.6,3.2 47.4,5.6 38.6,3.8 161.2,16 302,30.2 57.4,5.8 49,8.2 78,-21 l 25,-25 h 42 c 23,0 43,0.8 44.2,1.6 2.2,1.4 5,7.4 22,45.2 l 10.8,23.8 v 33.8 L 1530,790 l -4.3785,4.14559 -2.1242,216.88691 c 0,0 5.8712,1.3158 5.8712,2.5158 0,2 -39.2,69.8 -41.6,72 -1.4,1.2 -83.2,8.4 -298.4,25.8 -53.4,4.2 -158.6,12.8 -234,19 -75.2,6 -147.2,11.6 -160,12.4 0,0 -39.09913,2.4997 -182,2.6 h -104 z"
           fill="#166439"
           style="display:inline;fill:#333332;fill-opacity:1" />
        <rect
           style="display:inline;fill:#fffffb;fill-opacity:1"
           id="rect20"
           width="57.022278"
           height="75.653809"
           x="874.34161"
           y="816.5072" />
        <use
           x="0"
           y="0"
           xlink:href="#rect20"
           id="use200"
           transform="translate(-0.55913997,0.64528351)"
           style="display:inline;fill:#fffffb;fill-opacity:1" />
        <use
           x="0"
           y="0"
           xlink:href="#rect20"
           transform="translate(-0.6372075,93.827187)"
           id="use201"
           style="display:inline;fill:#fffffb;fill-opacity:1" />
        <use
           x="0"
           y="0"
           xlink:href="#rect20"
           transform="translate(71.678969,0.828012)"
           id="use202"
           style="display:inline;fill:#fffffb;fill-opacity:1" />
        <use
           x="0"
           y="0"
           xlink:href="#rect20"
           transform="translate(71.775631,93.524239)"
           id="use203"
           style="display:inline;fill:#fffffb;fill-opacity:1" />
        <use
           x="0"
           y="0"
           xlink:href="#rect20"
           transform="translate(142.95682,0.8280119)"
           id="use204"
           style="display:inline;fill:#fffffb;fill-opacity:1" />
        <use
           x="0"
           y="0"
           xlink:href="#rect20"
           transform="translate(143.05348,93.524239)"
           id="use205"
           style="display:inline;fill:#fffffb;fill-opacity:1" />
        <use
           x="0"
           y="0"
           xlink:href="#rect20"
           transform="translate(214.23466,0.82800856)"
           id="use206"
           style="display:inline;fill:#fffffb;fill-opacity:1" />
        <use
           x="0"
           y="0"
           xlink:href="#rect20"
           transform="translate(214.33133,93.524242)"
           id="use207"
           style="display:inline;fill:#fffffb;fill-opacity:1" />
        <use
           x="0"
           y="0"
           xlink:href="#rect20"
           transform="translate(285.51255,0.82797678)"
           id="use208"
           style="display:inline;fill:#fffffb;fill-opacity:1" />
        <use
           x="0"
           y="0"
           xlink:href="#rect20"
           transform="translate(285.6092,93.524276)"
           id="use209"
           style="display:inline;fill:#fffffb;fill-opacity:1" />
        <use
           x="0"
           y="0"
           xlink:href="#rect20"
           transform="translate(356.79071,0.8277298)"
           id="use210"
           style="display:inline;fill:#fffffb;fill-opacity:1" />
        <use
           x="0"
           y="0"
           xlink:href="#rect20"
           transform="translate(356.8873,93.524565)"
           id="use211"
           style="display:inline;fill:#fffffb;fill-opacity:1" />
        <use
           x="0"
           y="0"
           xlink:href="#rect20"
           transform="translate(428.07112,0.82576882)"
           id="use212"
           style="display:inline;fill:#fffffb;fill-opacity:1" />
        <use
           x="0"
           y="0"
           xlink:href="#rect20"
           transform="translate(428.16734,93.527135)"
           id="use213"
           style="display:inline;fill:#fffffb;fill-opacity:1" />
        <use
           x="0"
           y="0"
           xlink:href="#rect20"
           transform="translate(499.36991,0.81046579)"
           id="use214"
           style="display:inline;fill:#fffffb;fill-opacity:1" />
        <use
           x="0"
           y="0"
           xlink:href="#rect20"
           transform="translate(499.46467,93.549974)"
           id="use215"
           style="display:inline;fill:#fffffb;fill-opacity:1" />
        <use
           x="0"
           y="0"
           xlink:href="#rect20"
           transform="translate(570.81775,0.69327869)"
           id="use216"
           style="display:inline;fill:#fffffb;fill-opacity:1" />
        <use
           x="0"
           y="0"
           xlink:href="#rect20"
           transform="translate(570.91544,93.752154)"
           id="use217"
           style="display:inline;fill:#fffffb;fill-opacity:1" />
        <path
           d="m 931.01282,986.69061 -57.12479,0.60456 c -0.49276,-0.10293 -1.09045,-78.14942 -1.09045,-78.14942 z"
           id="path1"
           style="display:inline;fill:#333332;fill-opacity:1" />
        <path
           id="face-body"
           d="M 509,936 V 729 l 40.2,-36.8 39,-36.2 59.4,-0.4 59.2,-0.6 52.2,-66.8 147,-0.2 c 0,0 60.6894,78.17928 60.6,78.2 1.4,0.8 22.6,3.2 47.4,5.6 38.6,3.8 161.2,16 302,30.2 57.4,5.8 49,8.2 78,-21 l 25,-25 h 42 c 23,0 43,0.8 44.2,1.6 2.2,1.4 5,7.4 22,45.2 l 10.8,23.8 V 760.4 794 H 1106.4 674.8 l -11.8,12 -11.8,12 h 60 c 58,0 60.4,0.2 63.8,4 4.8,5.2 49.4,65.6 91.6,123.8 17.8,24.6 36,49.2 40.4,54.6 l 8,9.8 307.6,0.2 c 193,0 287.2046,-6.5278 307.4,1.8 1.849,0.7624 -39.6,70.6 -42,72.8 -1.4,1.2 -82.8,8.6 -298,26 -53.4,4.2 -157.6,12.8 -233,19 -75.2,6 -147.2,12.2 -160,13 l -23,1 -22.2,-25.2 C 692.6,1052 635.8,985.8 596,937.6 c -10.4,-12.8 -19.6,-22.8 -20.4,-22.2 -2.4,1.4 -1.8,32.4 0.6,37 1.2,2.2 21.2,29.4 44.6,60.4 23.2,30.8 49.4,66 58.2,78.2 8.8,12 21.2,28.4 27.4,36.4 6.4,8 13.32626,17.2901 12.72631,17.2978 -23.58086,0.3022 -209.75781,0.6505 -209.75781,0.6505 z m 993,-215.8 c 0,-1 -3.2,-9.2 -7.2,-18 l -7.4,-16.2 h -17.6 c -10.2,0 -17.8,0.8 -17.8,2 0,4.8 17.8,23 27.8,28.2 10.4,5.6 22.2,7.6 22.2,4 z M 935,685 887,621 H 779 l -49.00263,64 z"
           fill="#166439"
           style="display:inline" />
        <path
           id="rect236"
           style="display:inline;fill:#fdfbff;stroke-width:0.773526"
           d="m 785,640 h 95 l 30,45 H 755 Z" />
        <rect
           style="fill:#333332;fill-opacity:1;stroke-width:0.912868"
           id="rect237"
           width="25"
           height="45"
           x="820"
           y="640"
           ry="0" />
      </g>
      <path
         style="font-weight:bold;font-size:144.365px;font-family:Manrope;-inkscape-font-specification:'Manrope Bold';text-align:center;letter-spacing:-9.02279px;word-spacing:4.5114px;text-anchor:middle;white-space:pre;fill:#fffffb;stroke:#333332;stroke-width:4.96922;stroke-linejoin:round;paint-order:stroke fill markers"
         d="m 565.91766,1320.7053 32.77086,-103.9428 h 25.48042 l 32.77086,103.9428 h -17.90126 l -29.73919,-93.2598 h 3.89785 l -29.37828,93.2598 z m 18.26217,-22.521 v -16.241 h 54.56998 v 16.241 z m 76.73,22.521 v -77.9571 h 15.37487 v 18.984 l -1.87674,-2.4542 q 1.44365,-3.8979 3.82567,-7.0739 2.45421,-3.2482 5.84678,-5.3415 2.8873,-1.9489 6.35206,-3.0317 3.53695,-1.1549 7.21825,-1.3714 3.68131,-0.2888 7.14607,0.2887 v 16.241 q -3.46476,-1.0105 -8.01226,-0.6496 -4.47531,0.3609 -8.08444,2.5264 -3.60912,1.9489 -5.91896,4.9806 -2.23766,3.0316 -3.3204,6.9295 -1.08273,3.8257 -1.08273,8.301 v 39.6282 z m 82.57679,2.1655 q -11.83793,0 -20.78856,-5.125 -8.95063,-5.125 -14.0034,-14.2199 -4.9806,-9.095 -4.9806,-20.933 0,-12.7763 4.90841,-22.16 4.90842,-9.4559 13.6425,-14.6531 8.73408,-5.1971 20.2111,-5.1971 12.12666,0 20.57201,5.7024 8.51754,5.6303 12.63194,15.9524 4.1144,10.3221 3.10385,24.3255 h -17.25162 v -6.3521 q -0.0722,-12.7041 -4.47532,-18.5509 -4.40313,-5.8468 -13.85904,-5.8468 -10.68301,0 -15.88015,6.6408 -5.19714,6.5686 -5.19714,19.2727 0,11.838 5.19714,18.3344 5.19714,6.4964 15.15833,6.4964 6.42424,0 11.04392,-2.8151 4.69186,-2.8873 7.21825,-8.301 l 17.17944,5.1972 q -4.47532,10.5386 -13.85904,16.3854 -9.31155,5.8468 -20.57202,5.8468 z m -26.85189,-36.3078 v -13.1373 h 53.6316 v 13.1373 z m 121.05007,34.1423 v -37.5349 q 0,-3.6813 -0.50528,-8.1566 -0.50528,-4.4754 -2.38202,-8.5898 -1.80457,-4.1865 -5.48587,-6.8573 -3.60913,-2.6707 -9.81682,-2.6707 -3.3204,0 -6.56861,1.0827 -3.24821,1.0827 -5.91897,3.7535 -2.59857,2.5986 -4.18658,7.2182 -1.58802,4.5475 -1.58802,11.6936 l -10.3221,-4.4031 q 0,-9.9612 3.82568,-18.0457 3.89785,-8.0844 11.40483,-12.8484 7.50698,-4.8363 18.47872,-4.8363 8.6619,0 14.29214,2.8873 5.63023,2.8873 8.95063,7.3626 3.32039,4.4754 4.90841,9.5281 1.58801,5.0528 2.02111,9.6003 0.50528,4.4753 0.50528,7.2904 v 43.5261 z m -54.0647,0 v -77.9571 h 15.51924 v 24.1811 h 2.09329 v 53.776 z m 103.22096,2.1655 q -8.44535,0 -14.29213,-3.1761 -5.84678,-3.2482 -8.87845,-8.5897 -2.95948,-5.3415 -2.95948,-11.7657 0,-5.6303 1.87674,-10.1056 1.87675,-4.5475 5.7746,-7.7957 3.89786,-3.3204 10.10555,-5.4137 4.69187,-1.5158 10.97174,-2.7429 6.35206,-1.2271 13.71468,-2.2377 7.4348,-1.0827 15.51924,-2.3098 l -6.2077,3.5369 q 0.0722,-8.0844 -3.60912,-11.9101 -3.68131,-3.8257 -12.41539,-3.8257 -5.26933,0 -10.17774,2.4542 -4.90841,2.4543 -6.85733,8.4454 l -15.88015,-4.9806 q 2.8873,-9.889 10.97174,-15.8801 8.15662,-5.9912 21.94348,-5.9912 10.39428,0 18.26217,3.3926 7.94008,3.3926 11.76575,11.1161 2.09329,4.1144 2.52639,8.4453 0.43309,4.2588 0.43309,9.3116 v 47.857 h -15.23051 v -16.8907 l 2.52639,2.7429 q -5.26932,8.4454 -12.34321,12.4154 -7.0017,3.8979 -17.54035,3.8979 z m 3.46476,-13.8591 q 5.91897,0 10.10555,-2.0933 4.18659,-2.0933 6.64079,-5.1249 2.52639,-3.0317 3.39258,-5.7024 1.37147,-3.3204 1.51583,-7.5792 0.21655,-4.331 0.21655,-7.0017 l 5.34151,1.588 q -7.8679,1.2271 -13.49813,2.1655 -5.63024,0.9383 -9.67246,1.8045 -4.04222,0.794 -7.14606,1.8046 -3.03167,1.0827 -5.12496,2.5264 -2.09329,1.4436 -3.24821,3.3204 -1.08274,1.8767 -1.08274,4.4031 0,2.8873 1.44365,5.125 1.44365,2.1655 4.18658,3.4647 2.81512,1.2993 6.92952,1.2993 z m 66.01107,11.6936 32.77086,-103.9428 h 25.48045 l 32.7708,103.9428 h -17.9012 l -29.73922,-93.2598 h 3.89782 l -29.37825,93.2598 z m 18.26218,-22.521 v -16.241 h 54.56993 v 16.241 z m 78.17363,22.521 V 1214.597 h 17.396 v 106.1083 z m 31.4717,0 V 1214.597 h 17.396 v 106.1083 z m 31.4716,-89.795 v -15.9524 h 17.396 v 15.9524 z m 0,89.795 v -77.9571 h 17.396 v 77.9571 z m 62.7989,36.8131 q -6.4964,0 -12.4876,-2.0211 -5.9189,-2.0212 -10.683,-5.8468 -4.764,-3.7535 -7.7957,-9.095 l 16.0245,-7.9401 q 2.2377,4.2588 6.2799,6.2799 4.1144,2.0933 8.7341,2.0933 5.4137,0 9.6724,-1.949 4.2588,-1.8767 6.5686,-5.6302 2.3821,-3.6813 2.2377,-9.2394 v -22.16 h 2.1655 v -59.2618 h 15.2305 v 81.7106 q 0,2.9595 -0.2887,5.6302 -0.2166,2.7429 -0.794,5.3415 -1.7324,7.5792 -6.6408,12.4154 -4.9084,4.9084 -12.1989,7.2904 -7.2182,2.3821 -16.0245,2.3821 z m -1.5158,-34.6476 q -10.7552,0 -18.7675,-5.4137 -8.0122,-5.4137 -12.4154,-14.7253 -4.4031,-9.3115 -4.4031,-21.0051 0,-11.8379 4.4031,-21.0773 4.4753,-9.3115 12.632,-14.653 8.1566,-5.4137 19.2005,-5.4137 11.1161,0 18.6231,5.4137 7.5792,5.3415 11.477,14.653 3.8979,9.3116 3.8979,21.0773 0,11.6214 -3.8979,21.0051 -3.8978,9.3116 -11.6214,14.7253 -7.7235,5.4137 -19.1283,5.4137 z m 2.6707,-15.5915 q 7.0017,0 11.2605,-3.176 4.3309,-3.2482 6.2799,-9.0228 2.0211,-5.7746 2.0211,-13.3538 0,-7.6513 -2.0211,-13.3537 -1.949,-5.7746 -6.1355,-8.9507 -4.1866,-3.2482 -10.8274,-3.2482 -7.0017,0 -11.5492,3.4648 -4.5475,3.3926 -6.713,9.2393 -2.1655,5.7746 -2.1655,12.8485 0,7.1461 2.0933,12.9929 2.1655,5.7746 6.5686,9.1672 4.4032,3.3925 11.1883,3.3925 z m 67.7793,15.5915 q -8.4453,0 -14.2921,-3.1761 -5.8468,-3.2482 -8.8785,-8.5897 -2.9595,-5.3415 -2.9595,-11.7657 0,-5.6303 1.8768,-10.1056 1.8767,-4.5475 5.7746,-7.7957 3.8978,-3.3204 10.1055,-5.4137 4.6919,-1.5158 10.9718,-2.7429 6.352,-1.2271 13.7147,-2.2377 7.4348,-1.0827 15.5192,-2.3098 l -6.2077,3.5369 q 0.072,-8.0844 -3.6091,-11.9101 -3.6813,-3.8257 -12.4154,-3.8257 -5.2693,0 -10.1778,2.4542 -4.9084,2.4543 -6.8573,8.4454 l -15.8801,-4.9806 q 2.8873,-9.889 10.9717,-15.8801 8.1566,-5.9912 21.9435,-5.9912 10.3943,0 18.2622,3.3926 7.94,3.3926 11.7657,11.1161 2.0933,4.1144 2.5264,8.4453 0.4331,4.2588 0.4331,9.3116 v 47.857 h -15.2305 v -16.8907 l 2.5264,2.7429 q -5.2694,8.4454 -12.3432,12.4154 -7.0017,3.8979 -17.5404,3.8979 z m 3.4648,-13.8591 q 5.9189,0 10.1055,-2.0933 4.1866,-2.0933 6.6408,-5.1249 2.5264,-3.0317 3.3926,-5.7024 1.3715,-3.3204 1.5158,-7.5792 0.2166,-4.331 0.2166,-7.0017 l 5.3415,1.588 q -7.8679,1.2271 -13.4982,2.1655 -5.6302,0.9383 -9.6724,1.8045 -4.0422,0.794 -7.1461,1.8046 -3.0316,1.0827 -5.1249,2.5264 -2.0933,1.4436 -3.2483,3.3204 -1.0827,1.8767 -1.0827,4.4031 0,2.8873 1.4437,5.125 1.4436,2.1655 4.1865,3.4647 2.8152,1.2993 6.9296,1.2993 z m 94.5591,11.6936 q -7.7235,1.4436 -15.1583,1.2271 -7.3627,-0.1444 -13.2094,-2.6708 -5.8468,-2.5985 -8.8785,-8.1566 -2.6707,-5.0528 -2.8151,-10.3221 -0.1444,-5.2693 -0.1444,-11.9101 v -67.7794 h 17.3238 v 66.7688 q 0,4.6919 0.072,8.2289 0.1444,3.5369 1.5158,5.7746 2.5986,4.3309 8.301,4.8362 5.7025,0.5053 12.9929,-0.5775 z m -54.3534,-64.3146 v -13.6425 h 54.3534 v 13.6425 z m 92.6102,66.4801 q -11.6936,0 -20.4277,-5.2694 -8.734,-5.2693 -13.5703,-14.5086 -4.764,-9.3116 -4.764,-21.3661 0,-12.271 4.9084,-21.5104 4.9084,-9.2393 13.6425,-14.4365 8.7341,-5.1971 20.2111,-5.1971 11.7657,0 20.4998,5.2693 8.7341,5.2694 13.5703,14.5809 4.8363,9.2394 4.8363,21.2938 0,12.1267 -4.9085,21.4382 -4.8362,9.2394 -13.5703,14.5087 -8.734,5.1972 -20.4276,5.1972 z m 0,-16.3133 q 10.3943,0 15.447,-6.9295 5.0528,-6.9295 5.0528,-17.9013 0,-11.3326 -5.1249,-18.0456 -5.125,-6.7851 -15.3749,-6.7851 -7.0017,0 -11.5492,3.176 -4.4753,3.1038 -6.6408,8.7341 -2.1655,5.558 -2.1655,12.9206 0,11.3327 5.125,18.1178 5.1971,6.713 15.2305,6.713 z m 45.7637,14.1478 v -77.9571 h 15.3749 v 18.984 l -1.8768,-2.4542 q 1.4437,-3.8979 3.8257,-7.0739 2.4542,-3.2482 5.8468,-5.3415 2.8873,-1.9489 6.352,-3.0317 3.537,-1.1549 7.2183,-1.3714 3.6813,-0.2888 7.1461,0.2887 v 16.241 q -3.4648,-1.0105 -8.0123,-0.6496 -4.4753,0.3609 -8.0844,2.5264 -3.6092,1.9489 -5.919,4.9806 -2.2377,3.0316 -3.3204,6.9295 -1.0827,3.8257 -1.0827,8.301 v 39.6282 z"
         id="text1"
         transform="matrix(1.2473513,0,0,1.1687923,-248.34823,-223.76133)"
         aria-label="Arena Alligator" />
    </g>
  </g>
</svg>
